<svg width="170" height="50" viewBox="0 0 884 172" fill="none" xmlns="http://www.w3.org/2000/svg">
    <path
        d="M33.209 113.114c0 5.396.873 10.118 2.839 13.715 1.746 3.823 4.367 6.971 7.424 9.219 3.057 2.248 6.769 4.047 11.136 5.171 4.149 1.125 8.516 1.574 13.102 1.574 3.057 0 6.332-.224 9.826-.674 3.494-.45 6.77-1.574 9.826-3.148 3.057-1.349 5.46-3.373 7.643-6.071 1.965-2.698 3.057-6.071 3.057-10.118 0-4.272-1.529-7.87-4.15-10.568-2.62-2.698-6.113-4.947-10.48-6.745-4.368-1.799-9.39-3.373-14.849-4.722-5.677-1.35-11.136-2.698-16.813-4.497a107.738 107.738 0 01-17.033-5.396c-5.677-2.249-10.48-4.947-14.848-8.545-4.367-3.372-8.08-7.644-10.7-12.816-2.62-5.171-3.93-11.467-3.93-18.887 0-8.095 1.528-15.29 5.022-21.36 3.494-6.072 7.861-11.243 13.538-15.29 5.46-4.048 11.792-6.97 18.78-8.994 6.987-1.799 13.974-2.923 20.962-2.923 8.08 0 15.94 1.124 23.364 2.923 7.425 1.799 14.194 4.946 20.089 8.994 5.678 4.272 10.263 9.668 13.757 16.189 3.494 6.52 5.241 14.39 5.241 23.609h-33.19c-.438-4.722-1.311-8.544-3.058-11.917-1.747-3.148-3.93-5.621-6.55-7.42a41.154 41.154 0 00-9.609-3.823c-3.493-.674-7.424-.899-11.573-1.124-2.838 0-5.677.45-8.297.9-2.839.674-5.46 1.798-7.643 3.147-2.184 1.574-4.149 3.373-5.459 5.622-1.528 2.248-2.184 5.171-2.184 8.544 0 3.148.437 5.846 1.747 7.645 1.092 2.023 3.276 3.822 6.77 5.396 3.493 1.799 8.079 3.373 14.193 4.947 6.114 1.798 13.975 3.822 23.801 6.295 2.839.675 6.77 1.8 12.01 3.373 5.241 1.574 10.263 4.047 15.503 7.42 5.023 3.598 9.39 8.095 13.102 13.94 3.712 5.847 5.677 13.042 5.677 22.036 0 7.42-1.528 14.165-4.148 20.461-2.839 6.296-6.988 11.917-12.447 16.414-5.459 4.497-12.228 8.094-20.307 10.568C86.27 168.876 76.88 170 66.4 170c-8.735 0-17.033-.899-25.112-3.148-8.08-2.248-15.285-5.621-21.4-10.343-6.113-4.497-11.135-10.568-14.63-17.763-3.711-7.195-5.458-15.739-5.24-25.632h33.19zM277.862 59.825c-.655-4.048-1.965-7.645-3.93-11.018-2.184-3.373-4.586-6.296-7.643-8.994-3.057-2.473-6.551-4.497-10.481-5.846-3.931-1.349-7.861-2.023-12.01-2.248-7.861 0-14.412 1.574-19.652 4.721-5.459 3.148-9.826 7.196-13.102 12.367-3.494 5.172-5.896 11.018-7.424 17.538-1.529 6.746-2.184 13.491-2.184 20.461 0 6.746.655 13.491 2.184 19.787 1.528 6.296 3.93 12.142 7.424 17.088 3.276 5.172 7.643 9.219 13.102 12.367 5.24 3.148 11.791 4.497 19.652 4.497 10.481 0 18.561-3.148 24.456-9.893 5.896-6.521 9.608-15.29 10.918-26.083h33.191c-.873 10.118-3.275 19.112-6.769 27.207-3.712 8.094-8.516 15.065-14.412 20.686-6.114 5.846-13.101 10.118-20.962 13.041-8.08 3.148-16.814 4.497-26.422 4.497-12.01 0-22.709-2.024-32.317-6.296s-17.469-10.118-24.02-17.763c-6.551-7.42-11.573-16.189-15.067-26.307-3.493-10.118-5.24-21.136-5.24-32.828 0-11.917 1.747-22.934 5.24-33.277 3.494-10.343 8.516-19.337 15.067-26.982 6.551-7.42 14.412-13.49 24.02-17.988 9.608-4.272 20.307-6.295 32.317-6.52 8.516 0 16.595 1.349 24.238 3.822 7.643 2.698 14.412 6.296 20.526 11.243 6.114 4.946 11.136 10.792 15.067 17.987 3.93 7.195 6.332 15.515 7.424 24.734h-33.191zM535.128 2h34.282v134.723h75.989v29.679H535.128V2zM681.379 2h34.283v164.402h-34.283V2zM785.956 113.114c0 5.396.874 10.118 2.839 13.715 1.747 3.823 4.367 6.971 7.424 9.219 3.057 2.248 6.769 4.047 11.137 5.171 4.148 1.125 8.516 1.574 13.101 1.574 3.057 0 6.333-.224 9.826-.674 3.494-.45 6.77-1.574 9.827-3.148 3.057-1.349 5.459-3.373 7.642-6.071 1.965-2.698 3.057-6.071 3.057-10.118 0-4.272-1.528-7.87-4.149-10.568-2.62-2.698-6.114-4.947-10.481-6.745-4.367-1.799-9.389-3.373-14.848-4.722-5.678-1.35-11.137-2.698-16.814-4.497a107.726 107.726 0 01-17.032-5.396c-5.677-2.249-10.481-4.947-14.849-8.545-4.367-3.372-8.079-7.644-10.699-12.816-2.62-5.171-3.931-11.467-3.931-18.887 0-8.095 1.529-15.29 5.023-21.36 3.493-6.072 7.861-11.243 13.538-15.29 5.459-4.048 11.791-6.97 18.779-8.994 6.987-1.799 13.975-2.923 20.962-2.923 8.08 0 15.941 1.124 23.365 2.923 7.424 1.799 14.193 4.946 20.089 8.994 5.677 4.272 10.263 9.668 13.757 16.189 3.493 6.52 5.24 14.39 5.24 23.609h-33.19c-.437-4.722-1.31-8.544-3.057-11.917-1.747-3.148-3.931-5.621-6.551-7.42a41.157 41.157 0 00-9.608-3.823c-3.494-.674-7.424-.899-11.573-1.124-2.839 0-5.677.45-8.298.9-2.838.674-5.459 1.798-7.642 3.147-2.184 1.574-4.149 3.373-5.459 5.622-1.529 2.248-2.184 5.171-2.184 8.544 0 3.148.437 5.846 1.747 7.645 1.092 2.023 3.275 3.822 6.769 5.396 3.494 1.799 8.079 3.373 14.193 4.947 6.115 1.798 13.976 3.822 23.802 6.295 2.838.675 6.769 1.8 12.009 3.373 5.241 1.574 10.263 4.047 15.504 7.42 5.022 3.598 9.39 8.095 13.102 13.94 3.712 5.847 5.677 13.042 5.677 22.036 0 7.42-1.529 14.165-4.149 20.461-2.839 6.296-6.987 11.917-12.446 16.414-5.459 4.497-12.229 8.094-20.308 10.568-8.079 2.698-17.469 3.822-27.95 3.822-8.734 0-17.032-.899-25.111-3.148-8.08-2.248-15.285-5.621-21.4-10.343-6.114-4.497-11.136-10.568-14.63-17.763-3.712-7.195-5.459-15.739-5.24-25.632h33.19zM451.5 12l-6 17 49.242 136.139a5.605 5.605 0 0010.544-3.807L451.5 12z"
        fill="#0020D3" />
    <path fill-rule="evenodd" clip-rule="evenodd"
        d="M390.299 5.818a5.82 5.82 0 1110.958 3.93l-2.267 6.32h-2.219a6.67 6.67 0 00-2.406 12.893l-6.541 18.235h-2.173a6.67 6.67 0 00-2.447 12.878l-6.547 18.251h-2.122a6.67 6.67 0 00-2.491 12.86l-6.554 18.269h-2.07a6.67 6.67 0 00-2.537 12.842l-6.56 18.287h-2.022a6.67 6.67 0 00-2.578 12.825l-4.224 11.775a5.82 5.82 0 01-7.277 3.57 5.82 5.82 0 01-3.681-7.501L390.299 5.818z"
        fill="#0020D3" />
    <path
        d="M438.347 5.773a5.846 5.846 0 0111.001 3.96L393.904 164.68a6.166 6.166 0 11-11.603-4.177l56.046-154.73zM392.729 22.772a4.436 4.436 0 014.435-4.436h33.023c0 4.9-3.972 8.872-8.872 8.872h-24.151a4.436 4.436 0 01-4.435-4.436zM381.885 53.99a4.436 4.436 0 014.436-4.435h33.022c0 4.9-3.972 8.871-8.872 8.871h-24.15a4.436 4.436 0 01-4.436-4.436zM370.055 84.873a4.436 4.436 0 014.436-4.436h33.022c0 4.9-3.972 8.872-8.872 8.872h-24.15a4.436 4.436 0 01-4.436-4.436zM359.211 116.42a4.436 4.436 0 014.436-4.436h33.022c0 4.9-3.972 8.872-8.872 8.872h-24.15a4.436 4.436 0 01-4.436-4.436zM348.465 147.366a4.436 4.436 0 014.436-4.436h33.022a8.872 8.872 0 01-8.872 8.871h-24.15a4.436 4.436 0 01-4.436-4.435zM398.148 30.165l11.829-.493 6.408 17.25h-12.322l-5.915-16.757zM414.413 61.71h-4.929l2.958 5.915 1.971-5.914zM423.5 90l3-8.574h35l3 8.574h-41zM432.649 92.762H420.82l24.732 72.354a6.014 6.014 0 005.691 4.069c4.153 0 7.056-4.11 5.668-8.025l-24.262-68.398z"
        fill="#0020D3" />
</svg>